<svg width="54" height="44" viewBox="0 0 54 44" fill="none" xmlns="http://www.w3.org/2000/svg">
<path d="M46.2926 25.3437V41.8051C46.2926 42.3996 46.0805 42.914 45.6562 43.3484C45.232 43.7828 44.7296 44 44.149 44H31.2873V30.8309H22.7128V44H9.851C9.27044 44 8.76802 43.7828 8.34376 43.3484C7.9195 42.914 7.70737 42.3996 7.70737 41.8051V25.3437C7.70737 25.3209 7.71296 25.2866 7.72412 25.2408C7.73529 25.1951 7.74087 25.1608 7.74087 25.138L27 8.88231L46.2591 25.138C46.2815 25.1837 46.2926 25.2523 46.2926 25.3437ZM53.7618 22.9774L51.6852 25.5152C51.5066 25.721 51.2721 25.8467 50.9818 25.8924H50.8813C50.591 25.8924 50.3566 25.8124 50.1779 25.6524L27 5.86438L3.82205 25.6524C3.5541 25.8353 3.28615 25.9153 3.01819 25.8924C2.72791 25.8467 2.49345 25.721 2.31482 25.5152L0.238181 22.9774C0.0595451 22.7488 -0.0186079 22.4801 0.00372157 22.1715C0.026051 21.8628 0.148863 21.617 0.372157 21.4341L24.4544 0.891662C25.169 0.297222 26.0175 2.33948e-06 27 2.33948e-06C27.9825 2.33948e-06 28.831 0.297222 29.5456 0.891662L37.7181 7.88776V1.20031C37.7181 0.880231 37.8186 0.617306 38.0196 0.411538C38.2205 0.20577 38.4773 0.102886 38.7899 0.102886H45.2208C45.5334 0.102886 45.7902 0.20577 45.9912 0.411538C46.1921 0.617306 46.2926 0.880231 46.2926 1.20031V15.1925L53.6278 21.4341C53.8511 21.617 53.974 21.8628 53.9963 22.1715C54.0186 22.4801 53.9405 22.7488 53.7618 22.9774Z" fill="#576889"/>
</svg>
