<svg width="80" height="15" viewBox="0 0 80 15" fill="none" xmlns="http://www.w3.org/2000/svg">
<path d="M70 0.75L72.2451 5.93237H79.5106L73.6327 9.13525L75.8779 14.3176L70 11.1147L64.1221 14.3176L66.3673 9.13525L60.4894 5.93237H67.7549L70 0.75Z" fill="#C4BFBF"/>
<path d="M40 0.75L42.2451 5.93237H49.5106L43.6327 9.13525L45.8779 14.3176L40 11.1147L34.1221 14.3176L36.3673 9.13525L30.4894 5.93237H37.7549L40 0.75Z" fill="#FFD362"/>
<path d="M10 0.75L12.2451 5.93237H19.5106L13.6327 9.13525L15.8779 14.3176L10 11.1147L4.12216 14.3176L6.3673 9.13525L0.489441 5.93237H7.75487L10 0.75Z" fill="#E9E5E5"/>
</svg>
