<svg width="213" height="38" viewBox="0 0 213 38" fill="none" xmlns="http://www.w3.org/2000/svg">
<g filter="url(#filter0_d)">
<path d="M13.8203 20.1621C14.0664 18.7676 13.3809 17.7012 11.7637 16.9629L8.37109 15.6094C4.43359 13.8516 2.56445 11.4316 2.76367 8.34961C2.8457 6.91992 3.31445 5.6543 4.16992 4.55273C5.02539 3.45117 6.22656 2.58984 7.77344 1.96875C9.32031 1.33594 10.9902 1.03125 12.7832 1.05469C15.2559 1.10156 17.2539 1.83984 18.7773 3.26953C20.3008 4.6875 21.0508 6.5918 21.0273 8.98242H15.8945C15.9531 7.82227 15.6953 6.91992 15.1211 6.27539C14.5586 5.63086 13.6797 5.29687 12.4844 5.27344C11.3125 5.25 10.293 5.51953 9.42578 6.08203C8.55859 6.63281 8.04297 7.39453 7.87891 8.36719C7.65625 9.64453 8.51172 10.6582 10.4453 11.4082L12.7656 12.2871L14.1016 12.9023C17.5586 14.6133 19.1758 17.0156 18.9531 20.1094C18.8477 21.6211 18.3613 22.9277 17.4941 24.0293C16.6387 25.1191 15.4668 25.957 13.9785 26.543C12.502 27.1289 10.873 27.4043 9.0918 27.3691C7.27539 27.334 5.6582 26.9531 4.24023 26.2266C2.82227 25.5 1.74414 24.4746 1.00586 23.1504C0.314453 21.9199 -0.0078125 20.5137 0.0390625 18.9316L5.18945 18.9492C5.02539 21.7266 6.39062 23.1387 9.28516 23.1855C10.5391 23.1855 11.5703 22.9102 12.3789 22.3594C13.1875 21.8086 13.668 21.0762 13.8203 20.1621ZM31.9609 7.62891C33.6367 7.65234 35.0781 8.08594 36.2852 8.92969C37.5039 9.76172 38.3945 10.916 38.957 12.3926C39.5312 13.8574 39.7363 15.4863 39.5723 17.2793C39.3027 20.3027 38.248 22.752 36.4082 24.627C34.5801 26.4902 32.3184 27.3984 29.623 27.3516C27.9707 27.3281 26.541 26.9062 25.334 26.0859C24.127 25.2539 23.2363 24.1055 22.6621 22.6406C22.0879 21.1758 21.8828 19.5586 22.0469 17.7891C22.3516 14.6484 23.418 12.1523 25.2461 10.3008C27.0742 8.44922 29.3125 7.55859 31.9609 7.62891ZM26.9512 19.5996C26.9746 20.7246 27.2383 21.6152 27.7422 22.2715C28.2461 22.916 28.9551 23.25 29.8691 23.2734C31.3926 23.3203 32.5879 22.623 33.4551 21.1816C34.3223 19.7285 34.7266 17.8242 34.668 15.4688C34.6211 14.3438 34.3457 13.4473 33.8418 12.7793C33.3496 12.0996 32.6406 11.748 31.7148 11.7246C30.2383 11.6777 29.0547 12.375 28.1641 13.8164C27.2852 15.2461 26.8809 17.1738 26.9512 19.5996ZM54.0391 12.7441C53.3594 12.627 52.8027 12.5684 52.3691 12.5684C50.5996 12.5215 49.1992 13.1836 48.168 14.5547L45.9707 27H41.0137L44.3184 7.98047L48.9766 7.96289L48.5195 10.2832C49.7148 8.49023 51.1914 7.59375 52.9492 7.59375C53.4414 7.59375 54.0156 7.67578 54.6719 7.83984L54.0391 12.7441ZM64.8848 3.30469L64.0586 7.98047H67.2227L66.5723 11.707H63.4082L61.791 21.2344C61.7207 21.832 61.7676 22.2891 61.9316 22.6055C62.0957 22.9219 62.4941 23.0918 63.127 23.1152C63.3145 23.127 63.8184 23.0977 64.6387 23.0273L64.2871 26.9121C63.4082 27.2051 62.459 27.3398 61.4395 27.3164C59.8105 27.293 58.5977 26.7832 57.8008 25.7871C57.0039 24.791 56.6758 23.4434 56.8164 21.7441L58.4512 11.707H55.7617L56.4121 7.98047H59.1016L59.9102 3.30469H64.8848ZM77.9805 18.0879H68.3477L69.0508 13.9922H78.7012L77.9805 18.0879ZM91.4102 7.62891C93.0859 7.65234 94.5273 8.08594 95.7344 8.92969C96.9531 9.76172 97.8438 10.916 98.4062 12.3926C98.9805 13.8574 99.1855 15.4863 99.0215 17.2793C98.752 20.3027 97.6973 22.752 95.8574 24.627C94.0293 26.4902 91.7676 27.3984 89.0723 27.3516C87.4199 27.3281 85.9902 26.9062 84.7832 26.0859C83.5762 25.2539 82.6855 24.1055 82.1113 22.6406C81.5371 21.1758 81.332 19.5586 81.4961 17.7891C81.8008 14.6484 82.8672 12.1523 84.6953 10.3008C86.5234 8.44922 88.7617 7.55859 91.4102 7.62891ZM86.4004 19.5996C86.4238 20.7246 86.6875 21.6152 87.1914 22.2715C87.6953 22.916 88.4043 23.25 89.3184 23.2734C90.8418 23.3203 92.0371 22.623 92.9043 21.1816C93.7715 19.7285 94.1758 17.8242 94.1172 15.4688C94.0703 14.3438 93.7949 13.4473 93.291 12.7793C92.7988 12.0996 92.0898 11.748 91.1641 11.7246C89.6875 11.6777 88.5039 12.375 87.6133 13.8164C86.7344 15.2461 86.3301 17.1738 86.4004 19.5996ZM111.625 18.0879H101.992L102.695 13.9922H112.346L111.625 18.0879ZM125.547 1.40625L128.693 19.916L138.238 1.40625H145.094L140.646 27H135.479L136.744 19.7051L139.24 8.31445L129.432 27H125.898L122.471 7.66406L120.818 20.2676L119.641 27H114.49L118.938 1.40625H125.547ZM155.939 27C155.787 26.5195 155.723 25.9453 155.746 25.2773C154.316 26.707 152.699 27.3984 150.895 27.3516C149.23 27.3281 147.848 26.7891 146.746 25.7344C145.656 24.668 145.146 23.3555 145.217 21.7969C145.299 19.7227 146.166 18.1348 147.818 17.0332C149.482 15.9199 151.709 15.3633 154.498 15.3633L156.818 15.3984L157.064 14.2559C157.135 13.8691 157.152 13.5 157.117 13.1484C157.059 12.5977 156.848 12.1699 156.484 11.8652C156.133 11.5488 155.664 11.3848 155.078 11.373C154.305 11.3496 153.648 11.543 153.109 11.9531C152.57 12.3516 152.225 12.9316 152.072 13.6934L147.098 13.7109C147.18 11.8945 148.012 10.4238 149.594 9.29883C151.188 8.16211 153.15 7.60547 155.482 7.62891C157.639 7.67578 159.326 8.32031 160.545 9.5625C161.764 10.793 162.273 12.3809 162.074 14.3262L160.615 23.4316L160.527 24.5566C160.504 25.3887 160.604 26.0918 160.826 26.666L160.809 27H155.939ZM152.125 23.502C153.555 23.5488 154.803 22.9277 155.869 21.6387L156.484 18.3516L154.762 18.334C152.934 18.3809 151.615 18.9375 150.807 20.0039C150.514 20.3906 150.332 20.8652 150.262 21.4277C150.168 22.0605 150.297 22.5645 150.648 22.9395C151.012 23.3027 151.504 23.4902 152.125 23.502ZM173.904 3.30469L173.078 7.98047H176.242L175.592 11.707H172.428L170.811 21.2344C170.74 21.832 170.787 22.2891 170.951 22.6055C171.115 22.9219 171.514 23.0918 172.146 23.1152C172.334 23.127 172.838 23.0977 173.658 23.0273L173.307 26.9121C172.428 27.2051 171.479 27.3398 170.459 27.3164C168.83 27.293 167.617 26.7832 166.82 25.7871C166.023 24.791 165.695 23.4434 165.836 21.7441L167.471 11.707H164.781L165.432 7.98047H168.121L168.93 3.30469H173.904ZM181.076 27H176.084L179.389 7.98047H184.381L181.076 27ZM179.969 3.14648C179.945 2.36133 180.203 1.71094 180.742 1.19531C181.281 0.679688 181.932 0.421875 182.693 0.421875C183.443 0.398438 184.094 0.626953 184.645 1.10742C185.195 1.58789 185.482 2.20898 185.506 2.9707C185.529 3.69727 185.283 4.33008 184.768 4.86914C184.264 5.4082 183.602 5.68945 182.781 5.71289C182.043 5.73633 181.393 5.51367 180.83 5.04492C180.279 4.57617 179.992 3.94336 179.969 3.14648ZM193.627 23.2734C194.541 23.2969 195.303 23.0508 195.912 22.5352C196.521 22.0078 196.92 21.3105 197.107 20.4434L201.766 20.4258C201.684 21.7617 201.262 22.9629 200.5 24.0293C199.75 25.0957 198.742 25.9277 197.477 26.5254C196.223 27.123 194.898 27.4043 193.504 27.3691C191.195 27.334 189.367 26.5371 188.02 24.9785C186.672 23.4199 186.021 21.3457 186.068 18.7559L186.121 17.7891L186.139 17.5957C186.455 14.502 187.498 12.0527 189.268 10.248C191.037 8.43164 193.223 7.55859 195.824 7.62891C197.969 7.67578 199.668 8.37891 200.922 9.73828C202.188 11.0859 202.809 12.8672 202.785 15.082H198.162C198.162 14.0625 197.939 13.2598 197.494 12.6738C197.049 12.0879 196.381 11.7715 195.49 11.7246C193.123 11.6543 191.688 13.3828 191.184 16.9102C191.008 18.1875 190.943 19.2656 190.99 20.1445C191.107 22.1953 191.986 23.2383 193.627 23.2734Z" fill="#FFD466"/>
</g>
<defs>
<filter id="filter0_d" x="0.0346069" y="0.420288" width="212.751" height="36.9519" filterUnits="userSpaceOnUse" color-interpolation-filters="sRGB">
<feFlood flood-opacity="0" result="BackgroundImageFix"/>
<feColorMatrix in="SourceAlpha" type="matrix" values="0 0 0 0 0 0 0 0 0 0 0 0 0 0 0 0 0 0 127 0"/>
<feOffset dx="6" dy="6"/>
<feGaussianBlur stdDeviation="2"/>
<feColorMatrix type="matrix" values="0 0 0 0 0 0 0 0 0 0 0 0 0 0 0 0 0 0 0.25 0"/>
<feBlend mode="normal" in2="BackgroundImageFix" result="effect1_dropShadow"/>
<feBlend mode="normal" in="SourceGraphic" in2="effect1_dropShadow" result="shape"/>
</filter>
</defs>
</svg>
